<mxfile host="app.diagrams.net" modified="2021-05-25T12:43:38.334Z" agent="5.0 (Macintosh; Intel Mac OS X 10_15_6) AppleWebKit/605.1.15 (KHTML, like Gecko) Version/14.0.3 Safari/605.1.15" etag="XuepyxMOXwvpdajrEPvd" version="14.7.1" type="github">
  <diagram id="C5RBs43oDa-KdzZeNtuy" name="Page-1">
    <mxGraphModel dx="1277" dy="808" grid="1" gridSize="10" guides="1" tooltips="1" connect="1" arrows="1" fold="1" page="1" pageScale="1" pageWidth="827" pageHeight="1169" math="0" shadow="0">
      <root>
        <mxCell id="WIyWlLk6GJQsqaUBKTNV-0" />
        <mxCell id="WIyWlLk6GJQsqaUBKTNV-1" parent="WIyWlLk6GJQsqaUBKTNV-0" />
        <mxCell id="zt0nt1HbANw3qJApV1yz-21" value="No" style="edgeStyle=orthogonalEdgeStyle;rounded=0;orthogonalLoop=1;jettySize=auto;html=1;entryX=0;entryY=0.5;entryDx=0;entryDy=0;" edge="1" parent="WIyWlLk6GJQsqaUBKTNV-1" source="zt0nt1HbANw3qJApV1yz-7" target="zt0nt1HbANw3qJApV1yz-14">
          <mxGeometry relative="1" as="geometry" />
        </mxCell>
        <mxCell id="zt0nt1HbANw3qJApV1yz-22" value="Yes" style="edgeStyle=orthogonalEdgeStyle;rounded=0;orthogonalLoop=1;jettySize=auto;html=1;entryX=0.5;entryY=0;entryDx=0;entryDy=0;" edge="1" parent="WIyWlLk6GJQsqaUBKTNV-1" source="zt0nt1HbANw3qJApV1yz-7" target="zt0nt1HbANw3qJApV1yz-13">
          <mxGeometry relative="1" as="geometry" />
        </mxCell>
        <mxCell id="zt0nt1HbANw3qJApV1yz-7" value="If &lt;br&gt;(cashierPassword&lt;br&gt;found in &lt;br&gt;database)" style="strokeWidth=2;html=1;shape=mxgraph.flowchart.decision;whiteSpace=wrap;" vertex="1" parent="WIyWlLk6GJQsqaUBKTNV-1">
          <mxGeometry x="135" y="600" width="185" height="130" as="geometry" />
        </mxCell>
        <mxCell id="zt0nt1HbANw3qJApV1yz-18" style="edgeStyle=orthogonalEdgeStyle;rounded=0;orthogonalLoop=1;jettySize=auto;html=1;entryX=0.5;entryY=0;entryDx=0;entryDy=0;entryPerimeter=0;" edge="1" parent="WIyWlLk6GJQsqaUBKTNV-1" source="zt0nt1HbANw3qJApV1yz-11" target="zt0nt1HbANw3qJApV1yz-7">
          <mxGeometry relative="1" as="geometry">
            <mxPoint x="225.0000000000001" y="380" as="targetPoint" />
          </mxGeometry>
        </mxCell>
        <mxCell id="zt0nt1HbANw3qJApV1yz-11" value="READ CashierName&lt;br&gt;READ TodaysDate&lt;br&gt;READ cashierPassword" style="shape=parallelogram;html=1;strokeWidth=2;perimeter=parallelogramPerimeter;whiteSpace=wrap;rounded=1;arcSize=12;size=0.23;" vertex="1" parent="WIyWlLk6GJQsqaUBKTNV-1">
          <mxGeometry x="127.5" y="470" width="200" height="60" as="geometry" />
        </mxCell>
        <mxCell id="zt0nt1HbANw3qJApV1yz-23" style="edgeStyle=orthogonalEdgeStyle;rounded=0;orthogonalLoop=1;jettySize=auto;html=1;entryX=0.5;entryY=0;entryDx=0;entryDy=0;entryPerimeter=0;" edge="1" parent="WIyWlLk6GJQsqaUBKTNV-1" source="zt0nt1HbANw3qJApV1yz-13" target="zt0nt1HbANw3qJApV1yz-15">
          <mxGeometry relative="1" as="geometry" />
        </mxCell>
        <mxCell id="zt0nt1HbANw3qJApV1yz-13" value="Display “Accepted”" style="rounded=1;whiteSpace=wrap;html=1;absoluteArcSize=1;arcSize=14;strokeWidth=2;" vertex="1" parent="WIyWlLk6GJQsqaUBKTNV-1">
          <mxGeometry x="137.5" y="810" width="180" height="70" as="geometry" />
        </mxCell>
        <mxCell id="zt0nt1HbANw3qJApV1yz-14" value="Display “Error”" style="rounded=1;whiteSpace=wrap;html=1;absoluteArcSize=1;arcSize=14;strokeWidth=2;" vertex="1" parent="WIyWlLk6GJQsqaUBKTNV-1">
          <mxGeometry x="400" y="630" width="180" height="70" as="geometry" />
        </mxCell>
        <mxCell id="zt0nt1HbANw3qJApV1yz-15" value="End" style="strokeWidth=2;html=1;shape=mxgraph.flowchart.start_1;whiteSpace=wrap;" vertex="1" parent="WIyWlLk6GJQsqaUBKTNV-1">
          <mxGeometry x="165" y="950" width="125" height="60" as="geometry" />
        </mxCell>
        <mxCell id="zt0nt1HbANw3qJApV1yz-25" style="edgeStyle=orthogonalEdgeStyle;rounded=0;orthogonalLoop=1;jettySize=auto;html=1;" edge="1" parent="WIyWlLk6GJQsqaUBKTNV-1" source="zt0nt1HbANw3qJApV1yz-24" target="zt0nt1HbANw3qJApV1yz-11">
          <mxGeometry relative="1" as="geometry" />
        </mxCell>
        <mxCell id="zt0nt1HbANw3qJApV1yz-24" value="Cashierlogin" style="shape=parallelogram;html=1;strokeWidth=2;perimeter=parallelogramPerimeter;whiteSpace=wrap;rounded=1;arcSize=12;size=0.23;" vertex="1" parent="WIyWlLk6GJQsqaUBKTNV-1">
          <mxGeometry x="144" y="310" width="167" height="60" as="geometry" />
        </mxCell>
        <mxCell id="zt0nt1HbANw3qJApV1yz-27" style="edgeStyle=orthogonalEdgeStyle;rounded=0;orthogonalLoop=1;jettySize=auto;html=1;entryX=0.5;entryY=0;entryDx=0;entryDy=0;" edge="1" parent="WIyWlLk6GJQsqaUBKTNV-1" source="zt0nt1HbANw3qJApV1yz-26" target="zt0nt1HbANw3qJApV1yz-24">
          <mxGeometry relative="1" as="geometry" />
        </mxCell>
        <mxCell id="zt0nt1HbANw3qJApV1yz-26" value="Begin" style="strokeWidth=2;html=1;shape=mxgraph.flowchart.start_1;whiteSpace=wrap;" vertex="1" parent="WIyWlLk6GJQsqaUBKTNV-1">
          <mxGeometry x="152.5" y="140" width="150" height="70" as="geometry" />
        </mxCell>
      </root>
    </mxGraphModel>
  </diagram>
</mxfile>
